<?xml version="1.0" encoding="iso-8859-1"?>
<!-- Generator: Adobe Illustrator 19.0.0, SVG Export Plug-In . SVG Version: 6.00 Build 0)  -->
<svg version="1.1" id="Layer_1" xmlns="http://www.w3.org/2000/svg" xmlns:xlink="http://www.w3.org/1999/xlink" x="0px" y="0px"
	 viewBox="0 0 335.059 335.059" style="enable-background:new 0 0 335.059 335.059;" xml:space="preserve">
<g>
	<path style="fill:#FFD155;" d="M307.478,147.449h-0.6v-15.113c0-5.293-4.291-9.584-9.585-9.584c-5.293,0-9.584,4.291-9.584,9.584
		v15.113H268.54v-25.763c0-5.293-4.291-9.584-9.585-9.584c-5.293,0-9.584,4.291-9.584,9.584v25.763h-19.169v-15.113
		c0-5.293-4.291-9.584-9.585-9.584c-5.293,0-9.584,4.291-9.584,9.584v15.113h-51.848c-8.84-32.88-38.843-57.09-74.515-57.09
		c-42.62,0-77.17,34.55-77.17,77.17c0,42.62,34.55,77.17,77.17,77.17c35.672,0,65.675-24.209,74.515-57.09h148.293
		c11.09,0,20.08-8.99,20.08-20.081C327.559,156.439,318.568,147.449,307.478,147.449z M57.565,186.696
		c-10.585,0-19.166-8.581-19.166-19.166s8.581-19.166,19.166-19.166s19.167,8.581,19.167,19.166S68.15,186.696,57.565,186.696z"/>
	<g>
		<path style="fill:#E87E04;" d="M57.564,140.863c-14.704,0-26.666,11.962-26.666,26.667s11.962,26.667,26.666,26.667
			s26.667-11.962,26.667-26.667S72.269,140.863,57.564,140.863z M57.564,179.196c-6.433,0-11.666-5.233-11.666-11.667
			c0-6.433,5.233-11.667,11.666-11.667c6.434,0,11.667,5.233,11.667,11.667C69.231,173.962,63.998,179.196,57.564,179.196z"/>
		<path style="fill:#E87E04;" d="M314.378,140.822v-8.487c0-9.42-7.664-17.084-17.084-17.084c-9.421,0-17.085,7.664-17.085,17.084
			v7.613h-4.169v-18.263c0-9.42-7.664-17.084-17.084-17.084c-9.42,0-17.084,7.664-17.084,17.084v18.263h-4.169v-7.613
			c0-9.42-7.664-17.084-17.085-17.084c-9.42,0-17.084,7.664-17.084,17.084v7.613H164.73c-11.656-33.891-43.785-57.09-80.06-57.09
			C37.982,82.859,0,120.842,0,167.529s37.982,84.67,84.67,84.67c36.274,0,68.403-23.199,80.06-57.09h142.749
			c15.208,0,27.58-12.373,27.58-27.581C335.059,154.703,326.258,143.894,314.378,140.822z M307.478,180.11H159.186
			c-3.393,0-6.362,2.277-7.243,5.553c-8.157,30.344-35.821,51.537-67.272,51.537c-38.416,0-69.67-31.254-69.67-69.67
			s31.254-69.67,69.67-69.67c31.451,0,59.115,21.193,67.272,51.537c0.881,3.276,3.851,5.553,7.243,5.553h51.849
			c4.143,0,7.5-3.358,7.5-7.5v-15.113c0-1.149,0.935-2.084,2.084-2.084s2.085,0.935,2.085,2.084v15.113c0,4.142,3.357,7.5,7.5,7.5
			h19.169c4.143,0,7.5-3.358,7.5-7.5v-25.763c0-1.149,0.935-2.084,2.084-2.084c1.149,0,2.084,0.935,2.084,2.084v25.763
			c0,4.142,3.357,7.5,7.5,7.5h19.169c4.143,0,7.5-3.358,7.5-7.5v-15.113c0-1.149,0.935-2.084,2.085-2.084
			c1.149,0,2.084,0.935,2.084,2.084v15.113c0,4.142,3.358,7.5,7.5,7.5h0.601c6.937,0,12.58,5.644,12.58,12.581
			S314.415,180.11,307.478,180.11z"/>
	</g>
</g>
<g>
</g>
<g>
</g>
<g>
</g>
<g>
</g>
<g>
</g>
<g>
</g>
<g>
</g>
<g>
</g>
<g>
</g>
<g>
</g>
<g>
</g>
<g>
</g>
<g>
</g>
<g>
</g>
<g>
</g>
</svg>
