<svg width="800" height="800" xmlns="http://www.w3.org/2000/svg" data-name="Layer 1">
    <defs>
        <clipPath id="clip-path">
            <path id="svg_1" fill="#00ffe4"
                  d="m459.37,55.08q-30.11,-3.17 -59.88,-4.28q-29.79,1.14 -59.87,4.28c-108.24,11.36 -208.78,38.42 -306.27,84l21.39,98.74l42.26,153.7s38.86,115 117.16,207.52c70.1,82.81 166.05,147 185.32,157.57c19.28,-10.56 115.23,-74.76 185.33,-157.61c78.31,-92.47 117.19,-207.48 117.19,-207.48l42.28,-153.66l21.38,-98.74c-97.51,-45.62 -198.06,-72.68 -306.29,-84.04z"
                  class="cls-1"/>
        </clipPath>
    </defs>
    <g>
        <title>Layer 1</title>
        <g id="svg_19">
            <path id="svg_11" fill="#00ffe4"
                  d="m459.37,55.08q-30.11,-3.17 -59.88,-4.28q-29.79,1.14 -59.87,4.28c-108.24,11.36 -208.78,38.42 -306.27,84l21.39,98.74l42.26,153.7s38.86,115 117.16,207.52c70.1,82.81 166.05,147 185.32,157.57c19.28,-10.56 115.23,-74.76 185.33,-157.61c78.31,-92.47 117.19,-207.48 117.19,-207.48l42.28,-153.66l21.38,-98.74c-97.51,-45.62 -198.06,-72.68 -306.29,-84.04z"
                  class="cls-1"/>
            <g id="svg_12" clip-path="url(#clip-path)" class="cls-3">
                <rect id="svg_13" fill="#08b1d5" height="796.75" width="423.1" y="72.48" x="399.49" class="cls-4"/>
                <path id="svg_14" fill="#ff445f"
                      d="m714.15,358.54l32.28,-78.1c-67.88,-37.51 -163.26,-66.41 -260.06,-76.6l0,1.16l-0.66,-0.08c0,13.86 0.24,26.28 0.66,37.71l0,184a791.74,791.74 0 0 1 82.34,12.8c-0.45,1.19 -27.65,51.55 -67.14,95.8c-44.1,49.42 -96.86,93.54 -102.08,94.35c0,0 -0.12,136.4 0,136.47c1.84,1 124.08,-74.18 200.1,-164c77,-91 109.14,-210.53 109.14,-210.53c-35.73,-16.18 -80.43,-31.21 -123.32,-41.27l0,-36.73c47.08,11.2 90.44,26.48 128.74,45.02z"
                      class="cls-5"/>
                <path id="svg_15" fill="#ffc900"
                      d="m307.87,205.27c-93.72,9.61 -177.87,34.88 -243.87,70.91l23,78.26c62.08,-29.75 137.71,-50.61 220.85,-59.14l0.02,-90.03z"
                      class="cls-6"/>
                <path id="svg_16" fill="#ffc900"
                      d="m312.56,333.76l0,92.9a791.74,791.74 0 0 0 -82.34,12.8c0.45,1.19 27.65,51.55 67.14,95.8c44.1,49.42 96.86,93.54 102.08,94.35c0,0 0.12,136.4 0,136.47c-1.84,1 -124.08,-74.18 -200.1,-164c-77,-91 -109.13,-210.53 -109.13,-210.53c35.77,-16.22 84.13,-31.25 123.32,-41.31c40.32,-10.34 99.03,-16.48 99.03,-16.48z"
                      class="cls-6"/>
            </g>
            <path id="svg_17" fill="#1904da"
                  d="m399.54,47.34l0,0q-29.94,1.16 -60.18,4.3c-108.77,11.42 -209.82,38.61 -307.79,84.46l21.49,99.23l0.79,2.88c91,-39.79 185,-63.87 285.51,-74.42c2.53,-0.27 5.05,-0.52 7.58,-0.77l0,198.66a69.09,69.09 0 0 1 52.6,-24.16l0,-290.18z"
                  class="cls-7"/>
            <path id="svg_18" fill="#183278"
                  d="m399.4,47.39l0,0q29.94,1.14 60.18,4.29c108.77,11.42 209.82,38.62 307.79,84.46l-21.49,99.24l-0.79,2.87c-91,-39.79 -185,-63.86 -285.51,-74.42c-2.53,-0.26 -5.05,-0.52 -7.58,-0.76l0,198.65a69.12,69.12 0 0 0 -52.6,-24.16l0,-290.17z"
                  class="cls-8"/>
        </g>
    </g>
</svg>