<svg width="32" height="32" viewBox="0 0 500 524" fill="none" xmlns="http://www.w3.org/2000/svg">
    <path d="M250.513 44.6836L116.802 121.94L116.803 277.691L250.496 355.562L384.22 277.736V121.935L250.513 44.6836Z"
          fill="white"/>
    <path d="M248.085 223.026C232.963 216.221 224.024 201.67 224.5 186.22L192.175 167.553C189.764 185.437 193.616 204.143 203.317 220.352C213.643 237.605 228.555 250.455 248.086 257.895V223.026H248.085Z"
          fill="#1904DA"/>
    <path d="M249.309 259.673L247.648 259.04C228.219 251.638 212.951 238.833 202.265 220.981C192.512 204.685 188.497 185.652 190.962 167.389L191.206 165.578L225.745 185.525L225.723 186.258C225.254 201.455 234.229 215.449 248.586 221.909L249.309 222.234V259.673ZM193.166 169.54C191.273 186.695 195.224 204.444 204.366 219.723C214.456 236.58 228.746 248.811 246.859 256.1V223.81C232.247 216.911 223.07 202.568 223.259 186.919L193.166 169.54Z"
          fill="white"/>
    <path d="M248.084 302.094V262.019C227.166 254.379 211.141 240.627 200.144 222.252C189.742 204.871 185.783 184.725 188.731 165.567L158.686 148.217C141.474 211.036 180.093 277.943 248.084 302.094Z"
          fill="#1904DA"/>
    <path d="M249.308 303.828L247.674 303.248C214.551 291.483 187.1 269.117 170.374 240.27C153.654 211.434 149.083 178.626 157.503 147.891L157.924 146.361L190.068 164.923L189.941 165.752C187.015 184.767 191.013 204.609 201.194 221.621C212.358 240.275 228.275 253.479 248.503 260.867L249.307 261.161V303.828H249.308ZM159.459 150.076C143.413 211.917 180.692 276.024 246.858 300.348V262.871C226.472 255.231 210.405 241.78 199.094 222.88C188.767 205.627 184.625 185.534 187.396 166.209L159.459 150.076Z"
          fill="white"/>
    <path d="M252.513 261.651V302.091C319.247 277.38 359.305 210.59 342.385 148.422L312.503 165.831C316.232 186.495 312.98 206.64 302.984 223.493C292.714 240.81 274.781 253.805 252.513 261.651Z"
          fill="#08B1D5"/>
    <path d="M251.288 303.853V260.785L252.106 260.497C274.856 252.48 292.084 239.468 301.932 222.87C311.771 206.276 315.011 186.63 311.297 166.051L311.144 165.206L343.147 146.561L343.566 148.102C360.423 210.036 320.615 278.181 252.939 303.242L251.288 303.853ZM253.738 262.516V300.322C318.672 275.424 356.934 210.091 341.611 150.292L313.858 166.461C317.438 187.322 314.049 207.24 304.038 224.119C294.015 241.019 276.634 254.283 253.738 262.516Z"
          fill="white"/>
    <path d="M276.875 186.393C277.009 201.395 268.192 214.595 252.514 223.026V257.895C273.349 250.3 290.178 237.843 299.806 221.609C309.129 205.891 312.3 187.136 309.102 167.814L276.875 186.393Z"
          fill="#08B1D5"/>
    <path d="M251.288 259.645V222.293L251.934 221.946C267.133 213.771 275.778 200.817 275.648 186.403L275.641 185.688L310.022 165.869L310.309 167.613C313.582 187.401 310.316 206.289 300.858 222.233C291.285 238.376 274.713 251.105 252.932 259.045L251.288 259.645ZM253.738 223.753V256.131C274.167 248.355 289.71 236.226 298.753 220.984C307.632 206.011 310.872 188.339 308.166 169.766L278.099 187.1C277.951 201.958 269.119 215.25 253.738 223.753Z"
          fill="white"/>
    <path d="M281.529 132.783C294.134 138.93 304.4 148.776 311.218 161.257C311.308 161.421 311.392 161.592 311.48 161.758L340.791 144.832C340.325 144.245 339.877 143.651 339.509 143.056C328.757 125.663 314.551 112.577 297.287 104.156C248.551 80.3894 188.831 98.3094 160.299 144.895L189.539 161.773C209.393 129.853 249.358 117.095 281.529 132.783Z"
          fill="#FFC900"/>
    <path d="M310.997 163.452L310.145 161.854C303.448 149.589 293.367 139.921 280.994 133.885C249.726 118.637 210.011 131.172 190.58 162.422L189.953 163.428L158.599 145.328L159.255 144.256C188.023 97.2878 248.894 79.1978 297.823 103.057C315.3 111.58 329.675 124.821 340.55 142.414C340.895 142.968 341.316 143.523 341.751 144.072L342.634 145.185L310.997 163.452ZM162.008 144.468L189.132 160.126C209.444 128.563 250.027 116.06 282.066 131.684C294.697 137.843 305.019 147.648 311.958 160.069L338.977 144.467C338.795 144.212 338.625 143.957 338.467 143.703C327.836 126.511 313.803 113.576 296.75 105.259C249.3 82.1228 190.386 99.3618 162.008 144.468Z"
          fill="white"/>
    <path d="M263.225 169.982C268.443 172.527 272.674 176.636 275.462 181.863C275.556 182.04 275.639 182.225 275.728 182.405L308.278 163.608C308.176 163.416 308.078 163.22 307.974 163.03C301.526 151.225 291.821 141.913 279.909 136.105C249.475 121.261 211.623 133.369 192.741 163.622L225.114 182.308C233.55 168.777 249.874 163.471 263.225 169.982Z"
          fill="#FFC900"/>
    <path d="M275.204 184.122L274.376 182.43C271.718 177.441 267.674 173.515 262.687 171.081H262.689C249.948 164.873 234.244 169.976 226.152 182.956L225.527 183.961L191.029 164.049L191.701 162.973C211.14 131.83 249.294 119.804 280.445 135.003C292.586 140.923 302.477 150.411 309.048 162.442L309.919 164.074L275.204 184.122ZM251.243 165.998C255.5 165.998 259.764 166.929 263.762 168.88H263.764C269.018 171.445 273.316 175.525 276.225 180.704L306.637 163.141C300.313 151.786 290.895 142.824 279.374 137.205C250.195 122.979 213.155 134.402 194.461 163.201L224.72 180.666C231.01 171.29 241.098 165.998 251.243 165.998Z"
          fill="white"/>
    <path d="M380.178 126.406L345.683 146.502C363.877 211.19 322.154 280.91 252.513 306.021V349.816L380.177 275.412V126.406H380.178Z"
          fill="#08B1D5"/>
    <path d="M251.288 351.947V305.161L252.097 304.869C321.773 279.744 362.364 210.326 344.504 146.832L344.248 145.919L381.402 124.273V276.115L380.794 276.47L251.288 351.947ZM253.738 306.879V347.684L378.952 274.709V128.538L347.117 147.084C364.613 211.314 323.793 281.2 253.738 306.879Z"
          fill="white"/>
    <path d="M120.845 126.361V275.371L248.086 349.815V306.02C177.177 281.503 136.905 211.655 155.386 146.307L122.464 127.295L120.845 126.361Z"
          fill="#1904DA"/>
    <path d="M249.309 351.951L119.618 276.074V124.24L156.823 145.723L156.565 146.641C138.299 211.226 178.676 280.725 248.484 304.863L249.309 305.149V351.951ZM122.069 274.669L246.86 347.68V306.891C176.664 282.181 136.041 212.208 153.95 146.894L122.069 128.483V274.669Z"
          fill="white"/>
    <path d="M122.673 123.178L126.432 125.349L157.096 143.049C186.596 94.7946 248.436 76.2266 298.906 100.837C316.808 109.568 331.526 123.118 342.651 141.113C343.003 141.682 343.495 142.308 344.027 142.965L378.321 123.161L250.511 49.3516L122.673 123.178Z"
          fill="#FFC900"/>
    <path d="M157.517 144.706L120.224 123.177L250.513 47.9355L251.126 48.2885L380.774 123.16L343.737 144.546L343.079 143.736C342.507 143.034 341.986 142.364 341.61 141.755C330.608 123.961 316.06 110.565 298.371 101.936C248.817 77.7745 187.226 96.1165 158.142 143.686L157.517 144.706ZM125.124 123.178L156.679 141.394C186.665 93.5176 249.127 75.1995 299.441 99.7355C317.556 108.57 332.444 122.274 343.692 140.468C343.871 140.758 344.089 141.06 344.328 141.376L375.871 123.161L250.511 50.7645L125.124 123.178Z"
          fill="white"/>
    <path d="M252.367 218.969C264.947 211.933 272.5 200.671 272.984 188.177C272.984 188.177 273.04 186.937 272.946 184.928C272.927 184.515 270.157 177.924 261.715 173.321C250.381 167.14 234.295 173.086 227.853 184.928C227.853 184.928 227.698 186.38 227.771 188.177C228.233 199.531 235.229 212.864 247.616 218.969L250.128 220.167L252.367 218.969Z"
          fill="#FF445F"/>
    <path d="M250.158 221.539L247.091 220.075C233.519 213.386 226.997 199.262 226.547 188.228C226.47 186.362 226.628 184.861 226.636 184.798L226.777 184.343C230.024 178.378 235.771 173.591 242.545 171.21C249.443 168.784 256.645 169.161 262.302 172.245C270.863 176.913 274.12 183.756 274.17 184.871C274.268 186.949 274.208 188.23 274.208 188.23C273.706 201.173 265.963 212.769 252.965 220.038L250.158 221.539ZM229.049 185.294C229.013 185.758 228.944 186.858 228.996 188.127C229.4 198.104 235.571 211.667 248.157 217.87L250.095 218.795L251.777 217.895C264.006 211.052 271.29 200.203 271.759 188.129C271.761 188.094 271.812 186.903 271.723 184.985C271.472 184.201 268.514 178.425 261.128 174.396C256.082 171.644 249.607 171.327 243.355 173.521C237.23 175.674 232.031 179.957 229.049 185.294Z"
          fill="white"/>
</svg>
